<?xml version="1.0" encoding="UTF-8"?>
<svg xmlns="http://www.w3.org/2000/svg" id="ionos" viewBox="0 0 400 92">
  <defs>
    <style>.oneandone-blue{fill:#003d8f;}</style>
  </defs>
  <path class="oneandone-blue" d="M313.08,84.9c-1.2,0-2.69-.2-3.89-.5-5.68-1.2-10.57-4.69-13.46-9.57v-.2c-1.5-2.89-.5-6.38,2.19-7.88,1-.5,1.99-.7,2.89-.7,2.19,0,4.19,1.2,5.18,2.89l.2,.2,.7,.7,.7,.7c1,1,2.49,1.5,3.89,1.99,2.19,.5,4.69,0,6.58-1.5,1.99-1.5,3.19-3.69,3.39-5.88,.2-2.49-.7-4.89-2.19-6.38,0,0-17.85-18.34-18.64-19.34-.5-.5-1.2-1.2-2.19-2.49-2.49-3.69-3.19-7.88-2.89-11.76,.2-2.89,1-5.68,2.49-8.37,0,0,.7-1.5,1-1.69,1-1.5,2.69-3.19,4.19-4.19,1.2-1,2.89-1.69,3.39-1.99,3.39-1.69,7.88-2.49,12.26-1.5,5.38,1.2,10.27,4.69,12.96,9.27,.7,1.2,1,2.89,.7,4.39-.5,1.5-1.5,2.89-2.69,3.69-1,.5-1.99,.7-2.89,.7-2.19,0-4.19-1.2-5.18-2.89-1.2-1.99-2.89-3.19-5.18-3.69s-4.39,0-6.38,1.5c-1.69,1.2-2.69,3.19-2.89,5.68-.2,2.19,.5,4.39,2.19,5.88l18.14,18.64c3.89,4.19,6.08,9.77,5.68,15.45-.5,5.88-3.39,11.07-7.88,14.46-3.79,2.89-8.18,4.39-12.36,4.39"/>
  <path class="oneandone-blue" d="M255.46,84.9c-10.77,0-19.64-8.77-19.64-19.64V26.78c0-10.77,8.77-19.64,19.64-19.64s19.64,8.77,19.64,19.64v38.68c0,10.67-8.87,19.44-19.64,19.44m0-65.9c-4.19,0-7.88,3.39-7.88,7.88v38.68c0,4.39,3.39,7.88,7.88,7.88,4.19,0,7.88-3.39,7.88-7.88V26.88c0-4.19-3.69-7.88-7.88-7.88"/>
  <path class="oneandone-blue" d="M211.59,69.45V13.12c0-3.39-2.69-5.88-5.88-5.88-3.39,0-5.88,2.69-5.88,5.88V45.22l11.76,24.23Z"/>
  <path class="oneandone-blue" d="M179.09,10.73s0-.3,0,0c-1-1.99-3.19-3.39-5.38-3.39-.5,0-.7,0-1.2,.2-2.69,.5-4.69,2.89-4.69,5.68v1.5l32.3,67.1c1,1.99,3.19,3.19,5.18,3.19,.5,0,1,0,1.5-.2,2.69-.5,4.69-2.89,4.69-5.68v-1.2c-.1-.1-31.5-65.5-32.4-67.19"/>
  <path class="oneandone-blue" d="M179.59,47.22v31.8c0,3.39-2.69,5.88-5.88,5.88s-5.88-2.69-5.88-5.88V22.69l11.76,24.53Z"/>
  <path class="oneandone-blue" d="M123.66,84.9c-5.18,0-10.07-1.99-13.76-5.68-3.69-3.69-5.68-8.57-5.68-13.76V26.78c0-5.18,1.99-10.07,5.68-13.76s8.57-5.68,13.76-5.68,10.07,1.99,13.76,5.68,5.68,8.57,5.68,13.76v38.68c0,5.18-1.99,10.07-5.68,13.76s-8.57,5.68-13.76,5.68m0-65.9c-1.99,0-3.89,.7-5.38,2.19s-2.19,3.39-2.19,5.38v38.68c0,2.19,.7,4.19,2.19,5.38,1.5,1.5,3.39,2.19,5.38,2.19s3.89-.7,5.38-2.19,2.19-3.39,2.19-5.38V26.78c0-1.99-.7-3.89-2.19-5.38-1.4-1.4-3.39-2.39-5.38-2.39"/>
  <path class="oneandone-blue" d="M73.01,84.9c-3.69,0-6.38-2.89-6.38-6.38V13.42c0-3.39,2.89-6.38,6.38-6.38,2.89,0,5.38,1.99,6.08,4.69V78.12c.5,3.89-2.49,6.78-6.08,6.78"/>
</svg>